<mxfile host="65bd71144e">
    <diagram id="n_FQf2AKHFINR0Hc34nD" name="Page-1">
        <mxGraphModel dx="1499" dy="858" grid="1" gridSize="10" guides="1" tooltips="1" connect="1" arrows="1" fold="1" page="1" pageScale="1" pageWidth="1654" pageHeight="1169" background="none" math="1" shadow="0">
            <root>
                <mxCell id="0"/>
                <mxCell id="1" parent="0"/>
                <mxCell id="159" style="edgeStyle=orthogonalEdgeStyle;html=1;entryX=0.5;entryY=0;entryDx=0;entryDy=0;dashed=1;strokeWidth=2;strokeColor=#FF0000;rounded=0;" edge="1" parent="1" source="25" target="158">
                    <mxGeometry relative="1" as="geometry">
                        <Array as="points">
                            <mxPoint x="938" y="372"/>
                        </Array>
                    </mxGeometry>
                </mxCell>
                <mxCell id="116" style="edgeStyle=orthogonalEdgeStyle;rounded=0;html=1;entryX=1;entryY=0.5;entryDx=0;entryDy=0;dashed=1;strokeColor=#FF0000;strokeWidth=2;" parent="1" source="35" target="113" edge="1">
                    <mxGeometry relative="1" as="geometry">
                        <Array as="points">
                            <mxPoint x="720" y="702"/>
                            <mxPoint x="720" y="820"/>
                        </Array>
                    </mxGeometry>
                </mxCell>
                <mxCell id="3" style="edgeStyle=orthogonalEdgeStyle;rounded=0;orthogonalLoop=1;jettySize=auto;html=1;exitX=1;exitY=0;exitDx=0;exitDy=0;exitPerimeter=0;entryX=0.063;entryY=0.469;entryDx=0;entryDy=0;entryPerimeter=0;strokeWidth=2;fontSize=20;" parent="1" source="19" target="41" edge="1">
                    <mxGeometry relative="1" as="geometry">
                        <Array as="points">
                            <mxPoint x="970" y="672"/>
                        </Array>
                    </mxGeometry>
                </mxCell>
                <mxCell id="132" style="edgeStyle=orthogonalEdgeStyle;rounded=0;html=1;entryX=0.75;entryY=0;entryDx=0;entryDy=0;dashed=1;strokeColor=#FF0000;strokeWidth=2;fontSize=20;" parent="1" source="5" target="111" edge="1">
                    <mxGeometry relative="1" as="geometry"/>
                </mxCell>
                <mxCell id="133" value="H" style="edgeLabel;html=1;align=center;verticalAlign=middle;resizable=0;points=[];fontSize=20;" parent="132" vertex="1" connectable="0">
                    <mxGeometry x="-0.5337" y="-2" relative="1" as="geometry">
                        <mxPoint x="15" y="-27" as="offset"/>
                    </mxGeometry>
                </mxCell>
                <mxCell id="5" value="&lt;span style=&quot;font-size: 20px;&quot;&gt;PC&lt;/span&gt;" style="ellipse;whiteSpace=wrap;html=1;fontSize=20;" parent="1" vertex="1">
                    <mxGeometry x="600" y="180" width="40" height="40" as="geometry"/>
                </mxCell>
                <mxCell id="6" value="" style="verticalLabelPosition=bottom;align=center;html=1;verticalAlign=top;pointerEvents=1;dashed=0;shape=mxgraph.pid2valves.valve;valveType=ball;rotation=-45;fontSize=20;" parent="1" vertex="1">
                    <mxGeometry x="735" y="230" width="30" height="20" as="geometry"/>
                </mxCell>
                <mxCell id="7" style="edgeStyle=orthogonalEdgeStyle;rounded=0;orthogonalLoop=1;jettySize=auto;html=1;strokeWidth=2;dashed=1;fillColor=#a20025;strokeColor=#FF0000;exitX=0.5;exitY=0;exitDx=0;exitDy=0;exitPerimeter=0;entryX=1;entryY=0.5;entryDx=0;entryDy=0;fontSize=20;" parent="1" source="17" target="5" edge="1">
                    <mxGeometry relative="1" as="geometry">
                        <mxPoint x="930" y="150" as="targetPoint"/>
                    </mxGeometry>
                </mxCell>
                <mxCell id="8" style="edgeStyle=orthogonalEdgeStyle;rounded=0;orthogonalLoop=1;jettySize=auto;html=1;entryX=0.554;entryY=0.264;entryDx=0;entryDy=0;entryPerimeter=0;strokeWidth=2;dashed=1;fillColor=#a20025;strokeColor=#FF0000;exitX=0.5;exitY=1;exitDx=0;exitDy=0;fontSize=20;" parent="1" source="5" target="6" edge="1">
                    <mxGeometry relative="1" as="geometry">
                        <Array as="points">
                            <mxPoint x="620" y="236"/>
                        </Array>
                        <mxPoint x="850" y="120" as="sourcePoint"/>
                    </mxGeometry>
                </mxCell>
                <mxCell id="134" value="L" style="edgeLabel;html=1;align=center;verticalAlign=middle;resizable=0;points=[];fontSize=20;" parent="8" vertex="1" connectable="0">
                    <mxGeometry x="-0.2777" relative="1" as="geometry">
                        <mxPoint x="-33" y="15" as="offset"/>
                    </mxGeometry>
                </mxCell>
                <mxCell id="161" style="edgeStyle=orthogonalEdgeStyle;rounded=0;html=1;entryX=0.5;entryY=1;entryDx=0;entryDy=0;dashed=1;strokeColor=#FF0000;strokeWidth=2;" edge="1" parent="1" source="14" target="157">
                    <mxGeometry relative="1" as="geometry">
                        <Array as="points">
                            <mxPoint x="742" y="600"/>
                        </Array>
                    </mxGeometry>
                </mxCell>
                <mxCell id="14" value="" style="verticalLabelPosition=bottom;outlineConnect=0;align=center;dashed=0;html=1;verticalAlign=top;shape=mxgraph.pid2misc.column;columnType=tray;fontSize=20;" parent="1" vertex="1">
                    <mxGeometry x="578" y="352" width="110" height="300" as="geometry"/>
                </mxCell>
                <mxCell id="15" style="edgeStyle=orthogonalEdgeStyle;rounded=0;orthogonalLoop=1;jettySize=auto;html=1;strokeWidth=2;fontSize=20;" parent="1" target="19" edge="1">
                    <mxGeometry relative="1" as="geometry">
                        <Array as="points">
                            <mxPoint x="858" y="692"/>
                            <mxPoint x="858" y="692"/>
                        </Array>
                        <mxPoint x="818" y="692" as="sourcePoint"/>
                    </mxGeometry>
                </mxCell>
                <mxCell id="16" style="edgeStyle=orthogonalEdgeStyle;rounded=0;orthogonalLoop=1;jettySize=auto;html=1;entryX=0;entryY=0.5;entryDx=0;entryDy=0;strokeWidth=2;dashed=1;fillColor=#a20025;strokeColor=#FF0000;exitX=0.768;exitY=-0.005;exitDx=0;exitDy=0;exitPerimeter=0;fontSize=20;" parent="1" source="17" target="38" edge="1">
                    <mxGeometry relative="1" as="geometry">
                        <Array as="points">
                            <mxPoint x="851" y="210"/>
                        </Array>
                    </mxGeometry>
                </mxCell>
                <mxCell id="17" value="" style="shape=mxgraph.pid.vessels.pressurized_vessel;html=1;pointerEvents=1;align=center;verticalLabelPosition=bottom;verticalAlign=top;dashed=0;fontSize=20;" parent="1" vertex="1">
                    <mxGeometry x="790" y="250" width="80" height="60" as="geometry"/>
                </mxCell>
                <mxCell id="18" style="edgeStyle=orthogonalEdgeStyle;rounded=0;orthogonalLoop=1;jettySize=auto;html=1;entryX=0.124;entryY=0.5;entryDx=0;entryDy=0;entryPerimeter=0;fontSize=20;" parent="1" source="14" target="32" edge="1">
                    <mxGeometry relative="1" as="geometry">
                        <mxPoint x="680" y="240" as="targetPoint"/>
                        <Array as="points">
                            <mxPoint x="633" y="280"/>
                        </Array>
                    </mxGeometry>
                </mxCell>
                <mxCell id="19" value="" style="verticalLabelPosition=bottom;outlineConnect=0;align=center;dashed=0;html=1;verticalAlign=top;shape=mxgraph.pid.compressors.centrifugal_compressor;fontSize=20;" parent="1" vertex="1">
                    <mxGeometry x="878" y="672" width="40" height="40" as="geometry"/>
                </mxCell>
                <mxCell id="67" style="edgeStyle=orthogonalEdgeStyle;rounded=0;html=1;entryX=0;entryY=0.5;entryDx=0;entryDy=0;strokeColor=#FF0000;strokeWidth=2;dashed=1;fontSize=20;" parent="1" target="30" edge="1">
                    <mxGeometry relative="1" as="geometry">
                        <mxPoint x="400" y="502" as="sourcePoint"/>
                        <Array as="points">
                            <mxPoint x="400" y="450"/>
                        </Array>
                    </mxGeometry>
                </mxCell>
                <mxCell id="118" style="edgeStyle=orthogonalEdgeStyle;rounded=0;html=1;entryX=0.5;entryY=0;entryDx=0;entryDy=0;dashed=1;strokeColor=#FF0000;strokeWidth=2;" parent="1" source="21" target="117" edge="1">
                    <mxGeometry relative="1" as="geometry">
                        <Array as="points">
                            <mxPoint x="390" y="502"/>
                        </Array>
                    </mxGeometry>
                </mxCell>
                <mxCell id="21" value="" style="verticalLabelPosition=bottom;align=center;html=1;verticalAlign=top;pointerEvents=1;dashed=0;shape=mxgraph.pid2valves.valve;valveType=ball;fontSize=20;" parent="1" vertex="1">
                    <mxGeometry x="435" y="492" width="30" height="20" as="geometry"/>
                </mxCell>
                <mxCell id="22" value="" style="shape=mxgraph.pid.heat_exchangers.reboiler;html=1;pointerEvents=1;align=center;verticalLabelPosition=bottom;verticalAlign=top;dashed=0;fontSize=20;" parent="1" vertex="1">
                    <mxGeometry x="740" y="667" width="110" height="50" as="geometry"/>
                </mxCell>
                <mxCell id="23" value="" style="verticalLabelPosition=bottom;outlineConnect=0;align=center;dashed=0;html=1;verticalAlign=top;shape=mxgraph.pid.compressors.centrifugal_compressor;rotation=90;fontSize=20;" parent="1" vertex="1">
                    <mxGeometry x="820" y="332" width="30" height="30" as="geometry"/>
                </mxCell>
                <mxCell id="24" value="" style="verticalLabelPosition=bottom;align=center;html=1;verticalAlign=top;pointerEvents=1;dashed=0;shape=mxgraph.pid2valves.valve;valveType=ball;fontSize=20;" parent="1" vertex="1">
                    <mxGeometry x="727" y="362" width="30" height="20" as="geometry"/>
                </mxCell>
                <mxCell id="58" style="edgeStyle=orthogonalEdgeStyle;html=1;strokeColor=default;strokeWidth=2;fontSize=20;" parent="1" source="25" edge="1">
                    <mxGeometry relative="1" as="geometry">
                        <mxPoint x="970" y="372" as="targetPoint"/>
                    </mxGeometry>
                </mxCell>
                <mxCell id="25" value="" style="verticalLabelPosition=bottom;align=center;html=1;verticalAlign=top;pointerEvents=1;dashed=0;shape=mxgraph.pid2valves.valve;valveType=ball;fontSize=20;" parent="1" vertex="1">
                    <mxGeometry x="888" y="362" width="30" height="20" as="geometry"/>
                </mxCell>
                <mxCell id="26" value="" style="endArrow=classic;html=1;rounded=0;exitX=-0.014;exitY=0.443;exitDx=0;exitDy=0;exitPerimeter=0;fontSize=20;" parent="1" source="24" edge="1">
                    <mxGeometry width="50" height="50" relative="1" as="geometry">
                        <mxPoint x="715.3" y="371.1500000000001" as="sourcePoint"/>
                        <mxPoint x="688" y="370.8600000000001" as="targetPoint"/>
                    </mxGeometry>
                </mxCell>
                <mxCell id="29" style="edgeStyle=orthogonalEdgeStyle;rounded=0;orthogonalLoop=1;jettySize=auto;html=1;entryX=0.01;entryY=0.5;entryDx=0;entryDy=0;entryPerimeter=0;strokeWidth=2;fontSize=20;" parent="1" target="23" edge="1">
                    <mxGeometry relative="1" as="geometry">
                        <mxPoint x="835" y="312" as="sourcePoint"/>
                        <Array as="points">
                            <mxPoint x="835" y="322"/>
                            <mxPoint x="835" y="322"/>
                        </Array>
                    </mxGeometry>
                </mxCell>
                <mxCell id="30" value="&lt;font style=&quot;font-size: 20px;&quot;&gt;FC&lt;/font&gt;" style="ellipse;whiteSpace=wrap;html=1;fontSize=20;" parent="1" vertex="1">
                    <mxGeometry x="430" y="430" width="40" height="40" as="geometry"/>
                </mxCell>
                <mxCell id="32" value="" style="shape=mxgraph.pid.heat_exchangers.condenser;html=1;pointerEvents=1;align=center;verticalLabelPosition=bottom;verticalAlign=top;dashed=0;movable=1;resizable=1;rotatable=1;deletable=1;editable=1;locked=0;connectable=1;fontSize=20;" parent="1" vertex="1">
                    <mxGeometry x="680" y="250" width="60" height="60" as="geometry"/>
                </mxCell>
                <mxCell id="33" style="edgeStyle=orthogonalEdgeStyle;rounded=0;orthogonalLoop=1;jettySize=auto;html=1;entryX=-0.021;entryY=0.494;entryDx=0;entryDy=0;entryPerimeter=0;strokeWidth=2;fontSize=20;" parent="1" source="32" target="17" edge="1">
                    <mxGeometry relative="1" as="geometry"/>
                </mxCell>
                <mxCell id="35" value="" style="shape=mxgraph.pid.heat_exchangers.heater;html=1;pointerEvents=1;align=center;verticalLabelPosition=bottom;verticalAlign=top;dashed=0;fontSize=20;" parent="1" vertex="1">
                    <mxGeometry x="650" y="672" width="60" height="60" as="geometry"/>
                </mxCell>
                <mxCell id="37" value="" style="verticalLabelPosition=bottom;align=center;html=1;verticalAlign=top;pointerEvents=1;dashed=0;shape=mxgraph.pid2valves.valve;valveType=ball;rotation=315;fontSize=20;" parent="1" vertex="1">
                    <mxGeometry x="623" y="734" width="30" height="20" as="geometry"/>
                </mxCell>
                <mxCell id="89" style="edgeStyle=orthogonalEdgeStyle;rounded=0;html=1;entryX=0.75;entryY=0;entryDx=0;entryDy=0;dashed=1;strokeColor=#FF0000;strokeWidth=2;fontSize=20;" parent="1" source="38" target="86" edge="1">
                    <mxGeometry relative="1" as="geometry">
                        <Array as="points">
                            <mxPoint x="903" y="160"/>
                            <mxPoint x="463" y="160"/>
                            <mxPoint x="463" y="357"/>
                        </Array>
                    </mxGeometry>
                </mxCell>
                <mxCell id="131" value="H" style="edgeLabel;html=1;align=center;verticalAlign=middle;resizable=0;points=[];fontSize=20;" parent="89" vertex="1" connectable="0">
                    <mxGeometry x="-0.8135" relative="1" as="geometry">
                        <mxPoint x="48" as="offset"/>
                    </mxGeometry>
                </mxCell>
                <mxCell id="38" value="&lt;span style=&quot;font-size: 20px;&quot;&gt;LC&lt;/span&gt;" style="ellipse;whiteSpace=wrap;html=1;fontSize=20;" parent="1" vertex="1">
                    <mxGeometry x="883" y="190" width="40" height="40" as="geometry"/>
                </mxCell>
                <mxCell id="39" style="edgeStyle=orthogonalEdgeStyle;rounded=0;orthogonalLoop=1;jettySize=auto;html=1;entryX=0.5;entryY=0;entryDx=0;entryDy=0;strokeWidth=2;dashed=1;fillColor=#a20025;strokeColor=#FF0000;fontSize=20;" parent="1" source="38" target="83" edge="1">
                    <mxGeometry relative="1" as="geometry"/>
                </mxCell>
                <mxCell id="130" value="L" style="edgeLabel;html=1;align=center;verticalAlign=middle;resizable=0;points=[];fontSize=20;" parent="39" vertex="1" connectable="0">
                    <mxGeometry x="-0.7167" relative="1" as="geometry">
                        <mxPoint x="15" y="20" as="offset"/>
                    </mxGeometry>
                </mxCell>
                <mxCell id="57" style="edgeStyle=orthogonalEdgeStyle;html=1;strokeColor=default;strokeWidth=2;fontSize=20;" parent="1" source="41" edge="1">
                    <mxGeometry relative="1" as="geometry">
                        <mxPoint x="1017" y="670" as="targetPoint"/>
                    </mxGeometry>
                </mxCell>
                <mxCell id="41" value="" style="verticalLabelPosition=bottom;align=center;html=1;verticalAlign=top;pointerEvents=1;dashed=0;shape=mxgraph.pid2valves.valve;valveType=ball;fontSize=20;" parent="1" vertex="1">
                    <mxGeometry x="945" y="660" width="30" height="20" as="geometry"/>
                </mxCell>
                <mxCell id="45" value="" style="endArrow=classic;html=1;rounded=0;exitX=0.45;exitY=0;exitDx=0;exitDy=0;exitPerimeter=0;endSize=6;curved=0;strokeColor=default;strokeWidth=2;fontSize=20;" parent="1" source="22" edge="1">
                    <mxGeometry width="50" height="50" relative="1" as="geometry">
                        <mxPoint x="778" y="662" as="sourcePoint"/>
                        <mxPoint x="688" y="633.27" as="targetPoint"/>
                        <Array as="points">
                            <mxPoint x="790" y="632"/>
                        </Array>
                    </mxGeometry>
                </mxCell>
                <mxCell id="47" style="edgeStyle=orthogonalEdgeStyle;rounded=0;orthogonalLoop=1;jettySize=auto;html=1;entryX=0;entryY=0.682;entryDx=0;entryDy=0;entryPerimeter=0;exitX=0.876;exitY=0.5;exitDx=0;exitDy=0;exitPerimeter=0;endSize=6;curved=0;strokeWidth=2;fontSize=20;" parent="1" target="22" edge="1">
                    <mxGeometry relative="1" as="geometry">
                        <mxPoint x="728" y="830" as="targetPoint"/>
                        <mxPoint x="702.56" y="702" as="sourcePoint"/>
                        <Array as="points">
                            <mxPoint x="703" y="701"/>
                        </Array>
                    </mxGeometry>
                </mxCell>
                <mxCell id="48" style="edgeStyle=orthogonalEdgeStyle;rounded=0;orthogonalLoop=1;jettySize=auto;html=1;entryX=0.124;entryY=0.5;entryDx=0;entryDy=0;entryPerimeter=0;endSize=6;curved=0;strokeWidth=2;fontSize=20;" parent="1" source="14" edge="1">
                    <mxGeometry relative="1" as="geometry">
                        <mxPoint x="657.44" y="702" as="targetPoint"/>
                        <Array as="points">
                            <mxPoint x="633" y="702"/>
                        </Array>
                    </mxGeometry>
                </mxCell>
                <mxCell id="49" style="edgeStyle=orthogonalEdgeStyle;rounded=0;orthogonalLoop=1;jettySize=auto;html=1;dashed=1;endSize=6;curved=0;strokeColor=#FF0000;strokeWidth=2;exitX=0.5;exitY=1;exitDx=0;exitDy=0;entryX=0.476;entryY=0.889;entryDx=0;entryDy=0;entryPerimeter=0;fontSize=20;" parent="1" source="110" target="37" edge="1">
                    <mxGeometry relative="1" as="geometry">
                        <mxPoint x="643" y="790" as="targetPoint"/>
                        <mxPoint x="643" y="790" as="sourcePoint"/>
                        <Array as="points">
                            <mxPoint x="520" y="752"/>
                            <mxPoint x="520" y="780"/>
                            <mxPoint x="643" y="780"/>
                        </Array>
                    </mxGeometry>
                </mxCell>
                <mxCell id="50" style="edgeStyle=orthogonalEdgeStyle;rounded=0;orthogonalLoop=1;jettySize=auto;html=1;entryX=0.507;entryY=0.24;entryDx=0;entryDy=0;entryPerimeter=0;dashed=1;endSize=6;curved=0;strokeColor=#FF0000;strokeWidth=2;fontSize=20;" parent="1" source="30" target="21" edge="1">
                    <mxGeometry relative="1" as="geometry"/>
                </mxCell>
                <mxCell id="54" value="" style="endArrow=classic;html=1;rounded=0;exitX=-0.014;exitY=0.443;exitDx=0;exitDy=0;exitPerimeter=0;strokeWidth=2;fontSize=20;" parent="1" edge="1">
                    <mxGeometry width="50" height="50" relative="1" as="geometry">
                        <mxPoint x="726.5799999999999" y="370.83000000000015" as="sourcePoint"/>
                        <mxPoint x="688" y="370.83000000000015" as="targetPoint"/>
                    </mxGeometry>
                </mxCell>
                <mxCell id="56" style="edgeStyle=orthogonalEdgeStyle;rounded=0;orthogonalLoop=1;jettySize=auto;html=1;entryX=0.124;entryY=0.5;entryDx=0;entryDy=0;entryPerimeter=0;strokeWidth=2;fontSize=20;" parent="1" edge="1">
                    <mxGeometry relative="1" as="geometry">
                        <mxPoint x="687.44" y="279.97" as="targetPoint"/>
                        <Array as="points">
                            <mxPoint x="633" y="279.97"/>
                        </Array>
                        <mxPoint x="633.0344827586209" y="351.97" as="sourcePoint"/>
                    </mxGeometry>
                </mxCell>
                <mxCell id="66" style="edgeStyle=orthogonalEdgeStyle;html=1;strokeColor=default;strokeWidth=2;rounded=0;fontSize=20;" parent="1" edge="1">
                    <mxGeometry relative="1" as="geometry">
                        <mxPoint x="370" y="502" as="sourcePoint"/>
                        <mxPoint x="435" y="501.83" as="targetPoint"/>
                        <Array as="points">
                            <mxPoint x="435" y="502"/>
                        </Array>
                    </mxGeometry>
                </mxCell>
                <mxCell id="65" style="edgeStyle=orthogonalEdgeStyle;html=1;strokeColor=default;strokeWidth=2;rounded=0;fontSize=20;" parent="1" source="21" target="14" edge="1">
                    <mxGeometry relative="1" as="geometry"/>
                </mxCell>
                <mxCell id="88" style="edgeStyle=orthogonalEdgeStyle;html=1;entryX=0.497;entryY=0.124;entryDx=0;entryDy=0;entryPerimeter=0;rounded=0;dashed=1;strokeColor=#FF0000;strokeWidth=2;fontSize=20;" parent="1" source="83" target="25" edge="1">
                    <mxGeometry relative="1" as="geometry"/>
                </mxCell>
                <mxCell id="83" value="MIN" style="whiteSpace=wrap;html=1;fontSize=16;" parent="1" vertex="1">
                    <mxGeometry x="878" y="302" width="50" height="30" as="geometry"/>
                </mxCell>
                <mxCell id="103" style="edgeStyle=orthogonalEdgeStyle;rounded=0;html=1;entryX=0.5;entryY=0;entryDx=0;entryDy=0;dashed=1;strokeColor=#FF0000;strokeWidth=2;fontSize=20;" parent="1" source="86" target="30" edge="1">
                    <mxGeometry relative="1" as="geometry"/>
                </mxCell>
                <mxCell id="86" value="MIN" style="whiteSpace=wrap;html=1;fontSize=16;" parent="1" vertex="1">
                    <mxGeometry x="425" y="357" width="50" height="30" as="geometry"/>
                </mxCell>
                <mxCell id="91" style="edgeStyle=orthogonalEdgeStyle;rounded=0;html=1;entryX=0.5;entryY=1;entryDx=0;entryDy=0;dashed=1;strokeColor=#FF0000;strokeWidth=2;elbow=vertical;fontSize=20;exitX=0.674;exitY=-0.023;exitDx=0;exitDy=0;exitPerimeter=0;" parent="1" source="22" target="95" edge="1">
                    <mxGeometry relative="1" as="geometry">
                        <Array as="points">
                            <mxPoint x="814" y="640"/>
                            <mxPoint x="863" y="640"/>
                        </Array>
                        <mxPoint x="860" y="575" as="sourcePoint"/>
                    </mxGeometry>
                </mxCell>
                <mxCell id="92" style="edgeStyle=orthogonalEdgeStyle;rounded=0;html=1;entryX=0.25;entryY=0;entryDx=0;entryDy=0;dashed=1;strokeColor=#FF0000;strokeWidth=2;elbow=vertical;fontSize=20;" parent="1" source="95" target="96" edge="1">
                    <mxGeometry relative="1" as="geometry"/>
                </mxCell>
                <mxCell id="93" value="L" style="edgeLabel;html=1;align=center;verticalAlign=middle;resizable=0;points=[];fontSize=20;" parent="92" vertex="1" connectable="0">
                    <mxGeometry x="-0.7464" relative="1" as="geometry">
                        <mxPoint x="-4" y="20" as="offset"/>
                    </mxGeometry>
                </mxCell>
                <mxCell id="100" style="edgeStyle=orthogonalEdgeStyle;rounded=0;html=1;entryX=1;entryY=0.5;entryDx=0;entryDy=0;dashed=1;strokeColor=#FF0000;strokeWidth=2;fontSize=20;" parent="1" source="95" target="86" edge="1">
                    <mxGeometry relative="1" as="geometry">
                        <Array as="points">
                            <mxPoint x="863" y="530"/>
                            <mxPoint x="630" y="530"/>
                            <mxPoint x="630" y="372"/>
                        </Array>
                    </mxGeometry>
                </mxCell>
                <mxCell id="95" value="&lt;font style=&quot;font-size: 20px;&quot;&gt;LC&lt;/font&gt;" style="ellipse;whiteSpace=wrap;html=1;fontSize=20;" parent="1" vertex="1">
                    <mxGeometry x="843" y="560" width="40" height="40" as="geometry"/>
                </mxCell>
                <mxCell id="99" style="edgeStyle=orthogonalEdgeStyle;rounded=0;html=1;entryX=0.567;entryY=0;entryDx=0;entryDy=0;entryPerimeter=0;dashed=1;strokeColor=#FF0000;strokeWidth=2;fontSize=20;" parent="1" source="96" target="41" edge="1">
                    <mxGeometry relative="1" as="geometry"/>
                </mxCell>
                <mxCell id="96" value="MIN" style="whiteSpace=wrap;html=1;fontSize=16;" parent="1" vertex="1">
                    <mxGeometry x="935" y="610" width="50" height="30" as="geometry"/>
                </mxCell>
                <mxCell id="102" value="H" style="text;html=1;align=center;verticalAlign=middle;resizable=0;points=[];autosize=1;strokeColor=none;fillColor=none;fontSize=20;" parent="1" vertex="1">
                    <mxGeometry x="803" y="530" width="40" height="40" as="geometry"/>
                </mxCell>
                <mxCell id="106" style="edgeStyle=orthogonalEdgeStyle;rounded=0;html=1;entryX=1;entryY=0.5;entryDx=0;entryDy=0;dashed=1;strokeColor=#FF0000;strokeWidth=2;fontSize=20;" parent="1" source="105" target="83" edge="1">
                    <mxGeometry relative="1" as="geometry"/>
                </mxCell>
                <mxCell id="105" value="&lt;span style=&quot;font-size: 20px;&quot;&gt;$$D_S$$&lt;/span&gt;" style="whiteSpace=wrap;html=1;fontSize=20;strokeColor=none;" parent="1" vertex="1">
                    <mxGeometry x="975" y="302" width="50" height="30" as="geometry"/>
                </mxCell>
                <mxCell id="108" style="edgeStyle=orthogonalEdgeStyle;rounded=0;html=1;entryX=0.75;entryY=0;entryDx=0;entryDy=0;dashed=1;strokeColor=#FF0000;strokeWidth=2;fontSize=16;" parent="1" source="107" target="96" edge="1">
                    <mxGeometry relative="1" as="geometry">
                        <Array as="points">
                            <mxPoint x="995" y="560"/>
                            <mxPoint x="974" y="560"/>
                        </Array>
                    </mxGeometry>
                </mxCell>
                <mxCell id="107" value="&lt;span style=&quot;font-size: 20px;&quot;&gt;$$B_S$$&lt;/span&gt;" style="whiteSpace=wrap;html=1;fontSize=20;strokeColor=none;" parent="1" vertex="1">
                    <mxGeometry x="970" y="522" width="50" height="30" as="geometry"/>
                </mxCell>
                <mxCell id="110" value="&lt;font style=&quot;font-size: 20px;&quot;&gt;FC&lt;/font&gt;" style="ellipse;whiteSpace=wrap;html=1;fontSize=20;" parent="1" vertex="1">
                    <mxGeometry x="500" y="682" width="40" height="40" as="geometry"/>
                </mxCell>
                <mxCell id="121" style="edgeStyle=orthogonalEdgeStyle;rounded=0;html=1;entryX=0.5;entryY=0;entryDx=0;entryDy=0;dashed=1;strokeColor=#FF0000;strokeWidth=2;" parent="1" source="111" target="110" edge="1">
                    <mxGeometry relative="1" as="geometry"/>
                </mxCell>
                <mxCell id="111" value="MIN" style="whiteSpace=wrap;html=1;fontSize=16;" parent="1" vertex="1">
                    <mxGeometry x="495" y="625" width="50" height="30" as="geometry"/>
                </mxCell>
                <mxCell id="112" style="edgeStyle=orthogonalEdgeStyle;rounded=0;orthogonalLoop=1;jettySize=auto;html=1;dashed=1;endSize=6;curved=0;strokeColor=#FF0000;strokeWidth=2;entryX=1;entryY=0.5;entryDx=0;entryDy=0;fontSize=20;" parent="1" target="110" edge="1">
                    <mxGeometry relative="1" as="geometry">
                        <mxPoint x="652.9921738751773" y="760.0104076400858" as="targetPoint"/>
                        <mxPoint x="739" y="633" as="sourcePoint"/>
                        <Array as="points">
                            <mxPoint x="740" y="660"/>
                            <mxPoint x="580" y="660"/>
                            <mxPoint x="580" y="702"/>
                        </Array>
                    </mxGeometry>
                </mxCell>
                <mxCell id="142" style="edgeStyle=orthogonalEdgeStyle;rounded=0;html=1;dashed=1;strokeColor=#FF0000;strokeWidth=2;fontSize=20;" parent="1" source="113" target="141" edge="1">
                    <mxGeometry relative="1" as="geometry"/>
                </mxCell>
                <mxCell id="113" value="&lt;font style=&quot;font-size: 20px;&quot;&gt;CC&lt;/font&gt;" style="ellipse;whiteSpace=wrap;html=1;fontSize=20;" parent="1" vertex="1">
                    <mxGeometry x="653" y="800" width="40" height="40" as="geometry"/>
                </mxCell>
                <mxCell id="120" style="edgeStyle=orthogonalEdgeStyle;rounded=0;html=1;entryX=0;entryY=0.5;entryDx=0;entryDy=0;dashed=1;strokeColor=#FF0000;strokeWidth=2;" parent="1" source="117" target="111" edge="1">
                    <mxGeometry relative="1" as="geometry"/>
                </mxCell>
                <mxCell id="124" value="$$V_S$$" style="edgeLabel;html=1;align=center;verticalAlign=middle;resizable=0;points=[];fontSize=20;" parent="120" vertex="1" connectable="0">
                    <mxGeometry x="-0.2706" y="1" relative="1" as="geometry">
                        <mxPoint as="offset"/>
                    </mxGeometry>
                </mxCell>
                <mxCell id="117" value="&lt;span style=&quot;font-size: 20px;&quot;&gt;$$\times$$&lt;/span&gt;" style="whiteSpace=wrap;html=1;fontSize=20;fontStyle=0" parent="1" vertex="1">
                    <mxGeometry x="370" y="620" width="40" height="40" as="geometry"/>
                </mxCell>
                <mxCell id="123" style="edgeStyle=orthogonalEdgeStyle;rounded=0;html=1;entryX=0.25;entryY=0;entryDx=0;entryDy=0;dashed=1;strokeColor=#FF0000;strokeWidth=2;exitX=1;exitY=0.5;exitDx=0;exitDy=0;" parent="1" source="122" target="111" edge="1">
                    <mxGeometry relative="1" as="geometry"/>
                </mxCell>
                <mxCell id="122" value="&lt;span style=&quot;font-size: 20px;&quot;&gt;$$V_{MAX}$$&lt;/span&gt;" style="whiteSpace=wrap;html=1;fontSize=20;strokeColor=none;" parent="1" vertex="1">
                    <mxGeometry x="412.5" y="552" width="75" height="30" as="geometry"/>
                </mxCell>
                <mxCell id="126" style="edgeStyle=orthogonalEdgeStyle;rounded=0;html=1;entryX=0.5;entryY=1;entryDx=0;entryDy=0;dashed=1;strokeColor=#FF0000;strokeWidth=2;fontSize=20;" parent="1" source="125" target="113" edge="1">
                    <mxGeometry relative="1" as="geometry"/>
                </mxCell>
                <mxCell id="125" value="&lt;span style=&quot;font-size: 20px;&quot;&gt;$$x_{B,S}$$&lt;/span&gt;" style="whiteSpace=wrap;html=1;fontSize=20;strokeColor=none;" parent="1" vertex="1">
                    <mxGeometry x="648" y="870" width="50" height="30" as="geometry"/>
                </mxCell>
                <mxCell id="129" value="" style="edgeStyle=orthogonalEdgeStyle;rounded=0;html=1;dashed=1;strokeColor=#FF0000;strokeWidth=2;endArrow=none;exitX=0;exitY=0;exitDx=0;exitDy=0;" parent="1" source="113" edge="1">
                    <mxGeometry relative="1" as="geometry">
                        <mxPoint x="653" y="820" as="sourcePoint"/>
                        <mxPoint x="390" y="762" as="targetPoint"/>
                    </mxGeometry>
                </mxCell>
                <mxCell id="136" style="edgeStyle=orthogonalEdgeStyle;rounded=0;html=1;dashed=1;strokeColor=#FF0000;strokeWidth=2;fontSize=20;entryX=0.5;entryY=1;entryDx=0;entryDy=0;" parent="1" target="117" edge="1">
                    <mxGeometry relative="1" as="geometry">
                        <mxPoint x="350" y="700" as="targetPoint"/>
                        <mxPoint x="390" y="703" as="sourcePoint"/>
                    </mxGeometry>
                </mxCell>
                <mxCell id="137" style="edgeStyle=orthogonalEdgeStyle;rounded=0;orthogonalLoop=1;jettySize=auto;html=1;entryX=1.047;entryY=0.43;entryDx=0;entryDy=0;entryPerimeter=0;exitX=1;exitY=0;exitDx=0;exitDy=0;exitPerimeter=0;strokeWidth=2;fontSize=20;" parent="1" edge="1">
                    <mxGeometry relative="1" as="geometry">
                        <mxPoint x="758.4100000000001" y="370.6" as="targetPoint"/>
                        <mxPoint x="850" y="362" as="sourcePoint"/>
                        <Array as="points">
                            <mxPoint x="850" y="371"/>
                            <mxPoint x="758" y="371"/>
                        </Array>
                    </mxGeometry>
                </mxCell>
                <mxCell id="138" style="edgeStyle=orthogonalEdgeStyle;rounded=0;orthogonalLoop=1;jettySize=auto;html=1;exitX=1;exitY=0;exitDx=0;exitDy=0;exitPerimeter=0;strokeWidth=2;fontSize=20;entryX=-0.013;entryY=0.45;entryDx=0;entryDy=0;entryPerimeter=0;" parent="1" edge="1">
                    <mxGeometry relative="1" as="geometry">
                        <mxPoint x="887.6100000000001" y="371" as="targetPoint"/>
                        <mxPoint x="850" y="362" as="sourcePoint"/>
                        <Array as="points">
                            <mxPoint x="850" y="371"/>
                        </Array>
                    </mxGeometry>
                </mxCell>
                <mxCell id="143" style="edgeStyle=orthogonalEdgeStyle;rounded=0;html=1;dashed=1;strokeColor=#FF0000;strokeWidth=2;fontSize=20;entryX=1;entryY=0.5;entryDx=0;entryDy=0;" parent="1" source="141" target="144" edge="1">
                    <mxGeometry relative="1" as="geometry">
                        <mxPoint x="420" y="854" as="targetPoint"/>
                    </mxGeometry>
                </mxCell>
                <mxCell id="150" style="edgeStyle=none;rounded=0;html=1;entryX=0.813;entryY=0.02;entryDx=0;entryDy=0;entryPerimeter=0;strokeColor=default;strokeWidth=2;fontSize=20;" parent="1" source="141" target="146" edge="1">
                    <mxGeometry relative="1" as="geometry"/>
                </mxCell>
                <mxCell id="141" value="$$+\Delta$$" style="whiteSpace=wrap;html=1;strokeColor=default;fontSize=20;" parent="1" vertex="1">
                    <mxGeometry x="515" y="830" width="59" height="48" as="geometry"/>
                </mxCell>
                <mxCell id="145" style="edgeStyle=orthogonalEdgeStyle;rounded=0;html=1;entryX=0;entryY=0.5;entryDx=0;entryDy=0;dashed=1;strokeColor=#FF0000;strokeWidth=2;fontSize=20;" parent="1" source="144" target="86" edge="1">
                    <mxGeometry relative="1" as="geometry">
                        <Array as="points">
                            <mxPoint x="310" y="854"/>
                            <mxPoint x="310" y="372"/>
                        </Array>
                    </mxGeometry>
                </mxCell>
                <mxCell id="144" value="&lt;font style=&quot;font-size: 20px;&quot;&gt;CC&lt;/font&gt;" style="ellipse;whiteSpace=wrap;html=1;fontSize=20;" parent="1" vertex="1">
                    <mxGeometry x="390" y="834" width="40" height="40" as="geometry"/>
                </mxCell>
                <mxCell id="151" style="edgeStyle=none;rounded=0;html=1;entryX=0.5;entryY=1;entryDx=0;entryDy=0;strokeColor=default;strokeWidth=2;fontSize=20;" parent="1" source="146" target="144" edge="1">
                    <mxGeometry relative="1" as="geometry"/>
                </mxCell>
                <mxCell id="146" value="Override if &lt;br&gt;composition &lt;br&gt;control is lost" style="text;html=1;align=center;verticalAlign=middle;resizable=0;points=[];autosize=1;strokeColor=none;fillColor=none;fontSize=20;" parent="1" vertex="1">
                    <mxGeometry x="390" y="910" width="140" height="90" as="geometry"/>
                </mxCell>
                <mxCell id="154" value="$$\left( \frac{V}{F} \right)_S $$" style="whiteSpace=wrap;html=1;strokeColor=none;fontSize=20;" parent="1" vertex="1">
                    <mxGeometry x="350" y="700" width="80" height="60" as="geometry"/>
                </mxCell>
                <mxCell id="156" style="edgeStyle=orthogonalEdgeStyle;html=1;entryX=0.25;entryY=0;entryDx=0;entryDy=0;dashed=1;strokeWidth=2;strokeColor=#FF0000;rounded=0;" parent="1" source="155" target="86" edge="1">
                    <mxGeometry relative="1" as="geometry"/>
                </mxCell>
                <mxCell id="155" value="$$F_{S,MIN}$$" style="whiteSpace=wrap;html=1;fontSize=18;strokeColor=none;" parent="1" vertex="1">
                    <mxGeometry x="310" y="280" width="70" height="40" as="geometry"/>
                </mxCell>
                <mxCell id="162" style="edgeStyle=orthogonalEdgeStyle;rounded=0;html=1;entryX=0.515;entryY=0.917;entryDx=0;entryDy=0;entryPerimeter=0;dashed=1;strokeColor=#FF0000;strokeWidth=2;" edge="1" parent="1" source="157" target="24">
                    <mxGeometry relative="1" as="geometry"/>
                </mxCell>
                <mxCell id="157" value="&lt;font style=&quot;font-size: 20px;&quot;&gt;TC&lt;/font&gt;" style="ellipse;whiteSpace=wrap;html=1;fontSize=20;" vertex="1" parent="1">
                    <mxGeometry x="722" y="420" width="40" height="40" as="geometry"/>
                </mxCell>
                <mxCell id="160" style="edgeStyle=orthogonalEdgeStyle;rounded=0;html=1;entryX=1;entryY=0.5;entryDx=0;entryDy=0;dashed=1;strokeColor=#FF0000;strokeWidth=2;" edge="1" parent="1" source="158" target="157">
                    <mxGeometry relative="1" as="geometry"/>
                </mxCell>
                <mxCell id="163" value="$$T_{S,S36}$$" style="edgeLabel;html=1;align=center;verticalAlign=middle;resizable=0;points=[];fontSize=18;" vertex="1" connectable="0" parent="160">
                    <mxGeometry x="0.2869" y="4" relative="1" as="geometry">
                        <mxPoint x="26" y="-4" as="offset"/>
                    </mxGeometry>
                </mxCell>
                <mxCell id="158" value="&lt;font style=&quot;font-size: 20px;&quot;&gt;CC&lt;/font&gt;" style="ellipse;whiteSpace=wrap;html=1;fontSize=20;" vertex="1" parent="1">
                    <mxGeometry x="918" y="420" width="40" height="40" as="geometry"/>
                </mxCell>
            </root>
        </mxGraphModel>
    </diagram>
</mxfile>